<svg xmlns="http://www.w3.org/2000/svg" width="1200" height="620" viewBox="0 0 1200 620">
  <rect width="1200" height="620" fill="#ffffff"/>
  <g font-family="Inter, system-ui, -apple-system, Segoe UI, Roboto, Arial" fill="#0f172a">
    <text x="600" y="56" font-size="26" font-weight="700" text-anchor="middle">Karte kritischer Abläufe</text>
  </g>
  <g transform="translate(80,110)" font-family="Inter, system-ui, -apple-system, Segoe UI, Roboto, Arial">
    <g>
      <rect x="0" y="0" width="250" height="68" rx="12" fill="#f1f5f9" stroke="#e2e8f0"/><text x="125" y="42" text-anchor="middle" font-size="15" font-weight="600">Einstieg (Site / Vergleicher)</text>
      <rect x="300" y="0" width="250" height="68" rx="12" fill="#f1f5f9" stroke="#e2e8f0"/><text x="425" y="42" text-anchor="middle" font-size="15" font-weight="600">Fahrzeug &amp; Historie</text>
      <rect x="600" y="0" width="250" height="68" rx="12" fill="#f1f5f9" stroke="#e2e8f0"/><text x="725" y="42" text-anchor="middle" font-size="15" font-weight="600">Identität</text>
      <rect x="900" y="0" width="250" height="68" rx="12" fill="#f1f5f9" stroke="#e2e8f0"/><text x="1025" y="42" text-anchor="middle" font-size="15" font-weight="600">Führerschein &amp; Historie</text>
    </g>
    <g transform="translate(0,120)">
      <rect x="150" y="0" width="250" height="68" rx="12" fill="#f1f5f9" stroke="#e2e8f0"/><text x="275" y="42" text-anchor="middle" font-size="15" font-weight="600">Vorversicherung &amp; Malus</text>
      <rect x="450" y="0" width="250" height="68" rx="12" fill="#f1f5f9" stroke="#e2e8f0"/><text x="575" y="42" text-anchor="middle" font-size="15" font-weight="600">Zweitfahrer</text>
      <rect x="750" y="0" width="250" height="68" rx="12" fill="#f1f5f9" stroke="#e2e8f0"/><text x="875" y="42" text-anchor="middle" font-size="15" font-weight="600">Allgemeine Infos</text>
    </g>
    <g transform="translate(0,240)">
      <rect x="0" y="0" width="250" height="68" rx="12" fill="#ecfeff" stroke="#e2e8f0"/><text x="125" y="42" text-anchor="middle" font-size="15" font-weight="700">Tarif (Haftp./Teilk./Vollkasko)</text>
      <rect x="300" y="0" width="250" height="68" rx="12" fill="#ecfeff" stroke="#e2e8f0"/><text x="425" y="42" text-anchor="middle" font-size="15" font-weight="700">Optionen &amp; Selbstbehalte</text>
      <rect x="600" y="0" width="250" height="68" rx="12" fill="#dcfce7" stroke="#e2e8f0"/><text x="725" y="42" text-anchor="middle" font-size="15" font-weight="700">Zahlung</text>
      <rect x="900" y="0" width="250" height="68" rx="12" fill="#dcfce7" stroke="#e2e8f0"/><text x="1025" y="42" text-anchor="middle" font-size="15" font-weight="700">Vertragsunterzeichnung</text>
    </g>
    <g transform="translate(0,360)">
      <rect x="450" y="0" width="300" height="68" rx="12" fill="#f1f5f9" stroke="#e2e8f0"/><text x="600" y="42" text-anchor="middle" font-size="15" font-weight="600">Validierung Kontaktdaten</text>
    </g>
    <g stroke="#cbd5e1" stroke-width="3" fill="none" stroke-linecap="round">
      <path d="M250,34 H300"/><path d="M550,34 H600"/><path d="M850,34 H900"/>
      <path d="M425,68 C425,100 275,100 275,120"/><path d="M725,68 C725,100 575,100 575,120"/><path d="M1025,68 C1025,100 875,100 875,120"/>
      <path d="M275,188 C275,220 125,220 125,240"/><path d="M575,188 C575,220 425,220 425,240"/><path d="M875,188 C875,220 725,220 725,240"/>
      <path d="M725,308 C725,340 600,340 600,360"/><path d="M1025,308 C1025,340 600,340 600,360"/>
    </g>
  </g>
</svg>
