<svg xmlns="http://www.w3.org/2000/svg" width="1200" height="630" viewBox="0 0 1200 630">
  <defs><linearGradient id="g" x1="0" y1="0" x2="1" y2="1"><stop offset="0" stop-color="#e2e8f0"/><stop offset="1" stop-color="#f8fafc"/></linearGradient><filter id="soft" x="-20%" y="-20%" width="140%" height="140%"><feGaussianBlur stdDeviation="40"/></filter></defs>
  <rect width="1200" height="630" fill="url(#g)"/><circle cx="260" cy="150" r="120" fill="#93c5fd" filter="url(#soft)" opacity="0.45"/><circle cx="980" cy="520" r="160" fill="#a5b4fc" filter="url(#soft)" opacity="0.45"/>
  <rect x="80" y="120" width="1040" height="390" rx="24" fill="#ffffff" stroke="#e5e7eb"/>
  <g font-family="Inter, system-ui, -apple-system, Segoe UI, Roboto, Arial" fill="#0f172a">
    <text x="120" y="210" font-size="38" font-weight="700">Xpollens — QA-Automatisierung &amp; CI/CD</text>
    <text x="120" y="254" font-size="20" fill="#334155">C#, SpecFlow (Gherkin), Selenium (UI), RestSharp (API), Azure DevOps</text>
    <g transform="translate(120,320)">
      <rect x="0" y="0" width="960" height="8" rx="4" fill="#e2e8f0"/>
      <g text-anchor="middle" font-size="14" fill="#334155">
        <g transform="translate(0,0)"><circle cx="0" cy="4" r="14" fill="#2563eb"/><text x="0" y="-18" font-weight="600" fill="#0f172a">Code</text></g>
        <g transform="translate(240,0)"><circle cx="0" cy="4" r="14" fill="#2563eb"/><text x="0" y="-18" font-weight="600" fill="#0f172a">Build</text></g>
        <g transform="translate(480,0)"><circle cx="0" cy="4" r="14" fill="#2563eb"/><text x="0" y="-18" font-weight="600" fill="#0f172a">UI/API-Tests</text></g>
        <g transform="translate(720,0)"><circle cx="0" cy="4" r="14" fill="#2563eb"/><text x="0" y="-18" font-weight="600" fill="#0f172a">Report</text></g>
        <g transform="translate(960,0)"><circle cx="0" cy="4" r="14" fill="#16a34a"/><text x="0" y="-18" font-weight="600" fill="#0f172a">Deployment</text></g>
      </g>
    </g>
    <text x="120" y="410" font-size="16" fill="#475569">2 Läufe/Tag • Prod-Smoke • Teams- &amp; E-Mail-Benachrichtigungen</text>
  </g>
</svg>
