<svg xmlns="http://www.w3.org/2000/svg" width="1200" height="630" viewBox="0 0 1200 630">
  <defs><linearGradient id="g" x1="0" y1="0" x2="1" y2="1"><stop offset="0" stop-color="#e2e8f0"/><stop offset="1" stop-color="#f8fafc"/></linearGradient><filter id="soft" x="-20%" y="-20%" width="140%" height="140%"><feGaussianBlur stdDeviation="40"/></filter></defs>
  <rect width="1200" height="630" fill="url(#g)"/><circle cx="240" cy="160" r="120" fill="#93c5fd" filter="url(#soft)" opacity="0.45"/><circle cx="980" cy="540" r="160" fill="#a5b4fc" filter="url(#soft)" opacity="0.45"/>
  <rect x="80" y="120" width="1040" height="390" rx="24" fill="#ffffff" stroke="#e5e7eb"/>
  <g font-family="Inter, system-ui, -apple-system, Segoe UI, Roboto, Arial" fill="#0f172a">
    <text x="120" y="210" font-size="36" font-weight="700">Seguro Ornikar — Automação de QA &amp; CI/CD</text>
    <text x="120" y="248" font-size="18" fill="#334155">Cotações (44M veículos, 3 planos) • Pagamento • Comparadores integrados (LesFurets, LeLynx, MeilleureAssurance)</text>
    <text x="120" y="278" font-size="16" fill="#475569">Stack: TypeScript/React, Selenium, Playwright, Appium, Axios, Jenkins+Kubernetes, Xray, JMeter &amp; k6, Datadog, Grafana</text>
    <g transform="translate(120,330)">
      <rect x="0" y="0" width="960" height="8" rx="4" fill="#e2e8f0"/>
      <g text-anchor="middle" font-size="13" fill="#334155">
        <g transform="translate(0,0)"><circle cx="0" cy="4" r="14" fill="#2563eb"/><text x="0" y="-18" font-weight="600" fill="#0f172a">Código</text></g>
        <g transform="translate(240,0)"><circle cx="0" cy="4" r="14" fill="#2563eb"/><text x="0" y="-18" font-weight="600" fill="#0f172a">Build</text></g>
        <g transform="translate(480,0)"><circle cx="0" cy="4" r="14" fill="#22c55e"/><text x="0" y="-18" font-weight="600" fill="#0f172a">E2E (10 perfis)</text></g>
        <g transform="translate(720,0)"><circle cx="0" cy="4" r="14" fill="#0ea5e9"/><text x="0" y="-18" font-weight="600" fill="#0f172a">Relatório</text></g>
        <g transform="translate(960,0)"><circle cx="0" cy="4" r="14" fill="#16a34a"/><text x="0" y="-18" font-weight="600" fill="#0f172a">Release</text></g>
      </g>
    </g>
    <text x="120" y="408" font-size="15" fill="#475569">~25 min por run • 2 execuções/dia • execuções de PR • screenshots &amp; logs de API • Slack &amp; e-mail</text>
  </g>
</svg>
