<svg xmlns="http://www.w3.org/2000/svg" width="1200" height="520" viewBox="0 0 1200 520">
  <rect width="1200" height="520" fill="#ffffff"/>
  <g font-family="Inter, system-ui, -apple-system, Segoe UI, Roboto, Arial" fill="#0f172a">
    <text x="600" y="60" font-size="26" font-weight="700" text-anchor="middle">Fluxos críticos cobertos</text>
  </g>
  <g transform="translate(120,120)" font-family="Inter, system-ui, -apple-system, Segoe UI, Roboto, Arial">
    <g>
      <rect x="0" y="0" width="220" height="68" rx="12" fill="#f1f5f9" stroke="#e2e8f0"/><text x="110" y="42" text-anchor="middle" font-size="16" font-weight="600">Cartões Visa</text>
      <rect x="300" y="0" width="220" height="68" rx="12" fill="#f1f5f9" stroke="#e2e8f0"/><text x="410" y="42" text-anchor="middle" font-size="16" font-weight="600">Débitos SEPA</text>
      <rect x="600" y="0" width="220" height="68" rx="12" fill="#f1f5f9" stroke="#e2e8f0"/><text x="710" y="42" text-anchor="middle" font-size="16" font-weight="600">Carteiras &amp; Pagamentos</text>
      <rect x="900" y="0" width="220" height="68" rx="12" fill="#f1f5f9" stroke="#e2e8f0"/><text x="1010" y="42" text-anchor="middle" font-size="16" font-weight="600">Marketplace</text>
      <rect x="150" y="140" width="220" height="68" rx="12" fill="#f1f5f9" stroke="#e2e8f0"/><text x="260" y="182" text-anchor="middle" font-size="16" font-weight="600">Onboarding / KYC</text>
      <rect x="450" y="140" width="220" height="68" rx="12" fill="#f1f5f9" stroke="#e2e8f0"/><text x="560" y="182" text-anchor="middle" font-size="16" font-weight="600">Reembolsos</text>
      <rect x="750" y="140" width="220" height="68" rx="12" fill="#f1f5f9" stroke="#e2e8f0"/><text x="860" y="182" text-anchor="middle" font-size="16" font-weight="600">Reconciliação</text>
    </g>
    <g stroke="#cbd5e1" stroke-width="3" fill="none" stroke-linecap="round">
      <path d="M220,34 H300"/><path d="M520,34 H600"/><path d="M820,34 H900"/>
      <path d="M110,68 C110,110 260,110 260,140"/><path d="M410,68 C410,110 560,110 560,140"/><path d="M710,68 C710,110 860,110 860,140"/>
    </g>
  </g>
</svg>
