<svg xmlns="http://www.w3.org/2000/svg" width="1200" height="520" viewBox="0 0 1200 520">
  <rect width="1200" height="520" fill="#ffffff"/>
  <g font-family="Inter, system-ui, -apple-system, Segoe UI, Roboto, Arial" fill="#0f172a">
    <text x="600" y="60" font-size="26" font-weight="700" text-anchor="middle">Depois: pipeline Azure DevOps automatizado</text>
  </g>
  <g transform="translate(80,180)" font-family="Inter, system-ui, -apple-system, Segoe UI, Roboto, Arial">
    <rect x="0" y="0" width="180" height="90" rx="12" fill="#2563eb" opacity="0.9"/><text x="90" y="54" text-anchor="middle" font-size="16" font-weight="600" fill="#ffffff">Código</text>
    <rect x="220" y="0" width="180" height="90" rx="12" fill="#2563eb" opacity="0.9"/><text x="310" y="54" text-anchor="middle" font-size="16" font-weight="600" fill="#ffffff">Build</text>
    <rect x="440" y="-50" width="220" height="90" rx="12" fill="#22c55e" opacity="0.95"/><text x="550" y="-16" text-anchor="middle" font-size="14" font-weight="700" fill="#ffffff">Testes de API (RestSharp)</text>
    <rect x="440" y="60" width="220" height="90" rx="12" fill="#22c55e" opacity="0.95"/><text x="550" y="94" text-anchor="middle" font-size="14" font-weight="700" fill="#ffffff">Testes de UI (Selenium)</text>
    <rect x="700" y="0" width="180" height="90" rx="12" fill="#0ea5e9" opacity="0.9"/><text x="790" y="54" text-anchor="middle" font-size="16" font-weight="600" fill="#ffffff">Relatório</text>
    <rect x="920" y="0" width="180" height="90" rx="12" fill="#16a34a" opacity="0.95"/><text x="1010" y="54" text-anchor="middle" font-size="16" font-weight="600" fill="#ffffff">Implantação</text>
    <g stroke="#94a3b8" fill="none" stroke-width="3" stroke-linecap="round">
      <path d="M180,45 H220"/><path d="M400,45 H440"/><path d="M660,45 H700"/><path d="M880,45 H920"/><path d="M550,-50 V-10"/><path d="M550,60 V0"/>
    </g>
    <text x="520" y="170" font-size="14" fill="#334155" text-anchor="middle">2 execuções/dia • smoke em produção • notificações no Teams &amp; e-mail • artefatos &amp; screenshots</text>
  </g>
</svg>
