<svg xmlns="http://www.w3.org/2000/svg" width="1200" height="540" viewBox="0 0 1200 540">
  <rect width="1200" height="540" fill="#ffffff"/>
  <g font-family="Inter, system-ui, -apple-system, Segoe UI, Roboto, Arial" fill="#0f172a">
    <text x="600" y="56" font-size="26" font-weight="700" text-anchor="middle">After: robust E2E, PR runs, parallelisation &amp; clear reporting</text>
  </g>
  <g transform="translate(80,180)">
    <rect x="0" y="0" width="180" height="90" rx="12" fill="#2563eb" opacity="0.95"/><text x="90" y="54" text-anchor="middle" font-size="16" font-weight="600" fill="#fff">Code (PR)</text>
    <rect x="220" y="0" width="180" height="90" rx="12" fill="#2563eb" opacity="0.95"/><text x="310" y="54" text-anchor="middle" font-size="16" font-weight="600" fill="#fff">Build</text>
    <rect x="440" y="-52" width="220" height="90" rx="12" fill="#22c55e" opacity="0.95"/><text x="550" y="-18" text-anchor="middle" font-size="14" font-weight="700" fill="#fff">E2E UI (Selenium/Playwright)</text>
    <rect x="440" y="62" width="220" height="90" rx="12" fill="#22c55e" opacity="0.95"/><text x="550" y="96" text-anchor="middle" font-size="14" font-weight="700" fill="#fff">API (Axios)</text>
    <rect x="700" y="0" width="180" height="90" rx="12" fill="#0ea5e9" opacity="0.95"/><text x="790" y="54" text-anchor="middle" font-size="16" font-weight="600" fill="#fff">HTML report</text>
    <rect x="920" y="0" width="180" height="90" rx="12" fill="#16a34a" opacity="0.95"/><text x="1010" y="54" text-anchor="middle" font-size="16" font-weight="600" fill="#fff">Release</text>
    <g stroke="#94a3b8" stroke-width="3" fill="none" stroke-linecap="round">
      <path d="M180,45 H220"/><path d="M400,45 H440"/><path d="M660,45 H700"/><path d="M880,45 H920"/>
      <path d="M550,-52 V-12"/><path d="M550,62 V2"/>
    </g>
  </g>
  <g fill="#334155" font-size="14">
    <text x="600" y="420" text-anchor="middle">Stable selectors (Page Objects), test data builders, controlled randomisation, bounded retries, progressive waits</text>
    <text x="600" y="444" text-anchor="middle">~25 min/run • 2 runs/day • parallelised • screenshots &amp; API logs • Slack (Insurance/Growth/QA) &amp; email to Head of QA</text>
  </g>
</svg>
